# xmcd CD database file generated by Grip 3.2.0
# 
# Track frame offsets:
#       150
#       19380
#       41792
#       64460
#       90819
#       110561
#       140735
#       163375
#       189094
#       210104
#       231574
#       253121
# 
# Disc length: 3650 seconds
# 
# Revision: 3
# Processed by: cddbd v1.5.2PL0 Copyright (c) Steve Scherf et al.
# Submitted via: Grip 3.2.0
# 
DISCID=ac0e400c
DTITLE=Cassandra Wilson - Loverly
DYEAR=2008
DGENRE=Jazz
TTITLE0=Lover Come Back To Me
TTITLE1=Black Orpheus
TTITLE2=Wouldn't It Be Lovely
TTITLE3=Gone With The Wind
TTITLE4=Caravan
TTITLE5='Til There Was You
TTITLE6=Spring Can Really Hang You Up The Most
TTITLE7=Arere
TTITLE8=St. James Infimary
TTITLE9=Dust My Broom
TTITLE10=The Very Thought Of You
TTITLE11=Sleepin' Bee
EXTD=
EXTT0=
EXTT1=
EXTT2=
EXTT3=
EXTT4=
EXTT5=
EXTT6=
EXTT7=
EXTT8=
EXTT9=
EXTT10=
EXTT11=
PLAYORDER=
